<?xml version="1.0" encoding="UTF-8" standalone="no"?>
<svg
   width="16"
   height="16"
   version="1.1"
   id="svg1"
   sodipodi:docname="VirtualKeyboard.svg"
   inkscape:version="1.4.3 (0d15f75042, 2025-12-25)"
   xmlns:inkscape="http://www.inkscape.org/namespaces/inkscape"
   xmlns:sodipodi="http://sodipodi.sourceforge.net/DTD/sodipodi-0.dtd"
   xmlns="http://www.w3.org/2000/svg"
   xmlns:svg="http://www.w3.org/2000/svg">
  <defs
     id="defs1" />
  <sodipodi:namedview
     id="namedview1"
     pagecolor="#ffffff"
     bordercolor="#000000"
     borderopacity="0.25"
     inkscape:showpageshadow="2"
     inkscape:pageopacity="0.0"
     inkscape:pagecheckerboard="0"
     inkscape:deskcolor="#d1d1d1"
     showgrid="true"
     inkscape:zoom="22.627417"
     inkscape:cx="17.876543"
     inkscape:cy="10.032077"
     inkscape:window-width="1920"
     inkscape:window-height="1010"
     inkscape:window-x="0"
     inkscape:window-y="0"
     inkscape:window-maximized="1"
     inkscape:current-layer="svg1">
    <inkscape:grid
       id="grid4"
       units="px"
       originx="0"
       originy="0"
       spacingx="1"
       spacingy="1"
       empcolor="#0099e5"
       empopacity="0.30196078"
       color="#0099e5"
       opacity="0.14901961"
       empspacing="5"
       enabled="true"
       visible="true" />
  </sodipodi:namedview>
  <path
     id="rect5"
     style="fill:#8eef97;stroke-width:2.64575"
     d="M 3.1738281 1 C 1.9789429 1 1 1.9789429 1 3.1738281 L 1 12.826172 C 1 14.021057 1.9789431 15 3.1738281 15 L 12.826172 15 C 14.021057 15 15 14.021057 15 12.826172 L 15 3.1738281 C 15 1.9789431 14.021057 1 12.826172 1 L 3.1738281 1 z M 3.1738281 2.0761719 L 4 2.0761719 L 4 9 L 5 9 L 5 13.923828 L 3.1738281 13.923828 C 2.5569288 13.923828 2.0761719 13.443071 2.0761719 12.826172 L 2.0761719 3.1738281 C 2.0761719 2.5569289 2.5569289 2.0761719 3.1738281 2.0761719 z M 7 2.0761719 L 9 2.0761719 L 9 9 L 10 9 L 10 13.923828 L 6 13.923828 L 6 9 L 7 9 L 7 2.0761719 z M 12 2.0761719 L 12.826172 2.0761719 C 13.443071 2.0761719 13.923828 2.5569288 13.923828 3.1738281 L 13.923828 12.826172 C 13.923828 13.443071 13.443071 13.923828 12.826172 13.923828 L 11 13.923828 L 11 9 L 12 9 L 12 2.0761719 z " />
</svg>
